<svg width="101" height="95" viewBox="0 0 101 95" fill="none" xmlns="http://www.w3.org/2000/svg">
<path d="M51.5112 78.464C47.4015 80.5404 45.7692 85.5969 47.8382 89.7237C49.9072 93.8505 54.9252 95.5469 59.0349 93.4705C63.1446 91.394 64.8143 86.3186 62.7453 82.1918C60.6763 78.0651 55.621 76.3875 51.5112 78.464ZM0.880913 33.5157C1.91541 35.5791 4.44307 36.4178 6.49794 35.3796L10.234 33.4919L37.9602 55.1711L37.5058 66.8734C37.2989 73.2786 43.9514 77.5816 49.6303 74.7123L90.7276 53.9478C92.7824 52.9096 93.6173 50.3719 92.5828 48.3085C91.5483 46.2451 89.0206 45.4064 86.9657 46.4446L45.8685 67.2091L46.2164 57.6294L74.0504 43.5661C76.8525 42.1504 78.5472 39.3664 78.6513 36.3985L79.8195 5.29259C79.8492 4.56485 79.6892 3.84188 79.3553 3.19521C79.0213 2.54854 78.525 2.0006 77.9154 1.6056C77.3059 1.2106 76.6042 0.982231 75.8798 0.943094C75.1554 0.90396 74.4334 1.05541 73.7853 1.38247L18.4909 29.3202L13.298 25.2201C12.6766 24.7314 11.9295 24.4305 11.1442 24.3527C10.3588 24.2749 9.56765 24.4233 8.86334 24.7806L2.73611 27.8764C0.681253 28.9146 -0.153588 31.4523 0.880913 33.5157ZM88.8724 59.5871C84.7626 61.6636 83.1303 66.7201 85.1993 70.8469C87.2683 74.9737 92.2863 76.6701 96.396 74.5936C100.506 72.5172 102.175 67.4418 100.106 63.315C98.0374 59.1882 92.9821 57.5107 88.8724 59.5871Z" fill="white" fill-opacity="0.13"/>
</svg>
