<svg width="16" height="16" viewBox="0 0 16 16" fill="none" xmlns="http://www.w3.org/2000/svg">
<path d="M10.0131 5.09903L10.0121 5.098C9.82208 4.90833 9.73889 4.70585 9.73889 4.44444V1.77778C9.73889 1.51633 9.82213 1.31328 10.0126 1.12282C10.2022 0.933254 10.4048 0.85 10.6667 0.85H14.2222C14.4839 0.85 14.6869 0.933141 14.8771 1.12278C15.0668 1.31299 15.15 1.51608 15.15 1.77778V4.44444C15.15 4.70632 15.0667 4.90895 14.8772 5.09851C14.6867 5.28898 14.4837 5.37222 14.2222 5.37222H10.6667C10.4053 5.37222 10.2028 5.28903 10.0131 5.09903ZM1.77778 15.15C1.51608 15.15 1.31299 15.0668 1.12278 14.8771C0.933141 14.6869 0.85 14.4839 0.85 14.2222V1.77778C0.85 1.5161 0.933153 1.31302 1.12282 1.12282C1.31302 0.933153 1.5161 0.85 1.77778 0.85H5.33333C5.59503 0.85 5.79812 0.933165 5.98833 1.12286C6.17797 1.31305 6.26111 1.51612 6.26111 1.77778V14.2222C6.26111 14.4839 6.17798 14.6869 5.98838 14.8771C5.79815 15.0668 5.59505 15.15 5.33333 15.15H1.77778ZM10.6667 15.15C10.4048 15.15 10.2022 15.0667 10.0126 14.8772C9.82213 14.6867 9.73889 14.4837 9.73889 14.2222V9.77778C9.73889 9.51633 9.82213 9.31328 10.0126 9.12282C10.2022 8.93325 10.4048 8.85 10.6667 8.85H14.2222C14.4839 8.85 14.687 8.93315 14.8772 9.12282C15.0668 9.31302 15.15 9.5161 15.15 9.77778V14.2222C15.15 14.4839 15.0668 14.687 14.8772 14.8772C14.687 15.0668 14.4839 15.15 14.2222 15.15H10.6667Z" stroke="#808191" stroke-width="1.7"/>
<path d="M10.0131 5.09903L10.0121 5.098C9.82208 4.90833 9.73889 4.70585 9.73889 4.44444V1.77778C9.73889 1.51633 9.82213 1.31328 10.0126 1.12282C10.2022 0.933254 10.4048 0.85 10.6667 0.85H14.2222C14.4839 0.85 14.6869 0.933141 14.8771 1.12278C15.0668 1.31299 15.15 1.51608 15.15 1.77778V4.44444C15.15 4.70632 15.0667 4.90895 14.8772 5.09851C14.6867 5.28898 14.4837 5.37222 14.2222 5.37222H10.6667C10.4053 5.37222 10.2028 5.28903 10.0131 5.09903ZM1.77778 15.15C1.51608 15.15 1.31299 15.0668 1.12278 14.8771C0.933141 14.6869 0.85 14.4839 0.85 14.2222V1.77778C0.85 1.5161 0.933153 1.31302 1.12282 1.12282C1.31302 0.933153 1.5161 0.85 1.77778 0.85H5.33333C5.59503 0.85 5.79812 0.933165 5.98833 1.12286C6.17797 1.31305 6.26111 1.51612 6.26111 1.77778V14.2222C6.26111 14.4839 6.17798 14.6869 5.98838 14.8771C5.79815 15.0668 5.59505 15.15 5.33333 15.15H1.77778ZM10.6667 15.15C10.4048 15.15 10.2022 15.0667 10.0126 14.8772C9.82213 14.6867 9.73889 14.4837 9.73889 14.2222V9.77778C9.73889 9.51633 9.82213 9.31328 10.0126 9.12282C10.2022 8.93325 10.4048 8.85 10.6667 8.85H14.2222C14.4839 8.85 14.687 8.93315 14.8772 9.12282C15.0668 9.31302 15.15 9.5161 15.15 9.77778V14.2222C15.15 14.4839 15.0668 14.687 14.8772 14.8772C14.687 15.0668 14.4839 15.15 14.2222 15.15H10.6667Z" stroke="black" stroke-opacity="0.2" stroke-width="1.7"/>
<path d="M10.0131 5.09903L10.0121 5.098C9.82208 4.90833 9.73889 4.70585 9.73889 4.44444V1.77778C9.73889 1.51633 9.82213 1.31328 10.0126 1.12282C10.2022 0.933254 10.4048 0.85 10.6667 0.85H14.2222C14.4839 0.85 14.6869 0.933141 14.8771 1.12278C15.0668 1.31299 15.15 1.51608 15.15 1.77778V4.44444C15.15 4.70632 15.0667 4.90895 14.8772 5.09851C14.6867 5.28898 14.4837 5.37222 14.2222 5.37222H10.6667C10.4053 5.37222 10.2028 5.28903 10.0131 5.09903ZM1.77778 15.15C1.51608 15.15 1.31299 15.0668 1.12278 14.8771C0.933141 14.6869 0.85 14.4839 0.85 14.2222V1.77778C0.85 1.5161 0.933153 1.31302 1.12282 1.12282C1.31302 0.933153 1.5161 0.85 1.77778 0.85H5.33333C5.59503 0.85 5.79812 0.933165 5.98833 1.12286C6.17797 1.31305 6.26111 1.51612 6.26111 1.77778V14.2222C6.26111 14.4839 6.17798 14.6869 5.98838 14.8771C5.79815 15.0668 5.59505 15.15 5.33333 15.15H1.77778ZM10.6667 15.15C10.4048 15.15 10.2022 15.0667 10.0126 14.8772C9.82213 14.6867 9.73889 14.4837 9.73889 14.2222V9.77778C9.73889 9.51633 9.82213 9.31328 10.0126 9.12282C10.2022 8.93325 10.4048 8.85 10.6667 8.85H14.2222C14.4839 8.85 14.687 8.93315 14.8772 9.12282C15.0668 9.31302 15.15 9.5161 15.15 9.77778V14.2222C15.15 14.4839 15.0668 14.687 14.8772 14.8772C14.687 15.0668 14.4839 15.15 14.2222 15.15H10.6667Z" stroke="black" stroke-opacity="0.2" stroke-width="1.7"/>
</svg>
