<svg width="9" height="18" viewBox="0 0 9 18" fill="none" xmlns="http://www.w3.org/2000/svg">
<path d="M4.50012 0C5.05323 0 5.50009 0.503789 5.50009 1.125V2.37938C5.55009 2.38676 5.59697 2.39484 5.64696 2.40293C5.97821 2.45848 6.96568 2.63742 7.37192 2.75309C7.87815 2.90566 8.23127 3.51914 8.09377 4.12031C7.9594 4.72148 7.41567 5.08711 6.87818 4.93594C6.58756 4.81992 5.70321 4.68633 5.35322 4.63008C4.35013 4.46133 3.49078 4.5457 2.90017 4.79883C2.32893 5.04492 2.09175 5.39297 2.02894 5.7832C1.96832 6.15937 2.01425 6.37383 2.06925 6.50742C2.12831 6.64805 2.24362 6.80625 2.4733 6.97852C2.98141 7.35469 3.75639 7.60781 4.76261 7.91367L4.85011 7.9418C5.73759 8.2125 6.82506 8.54648 7.63128 9.14766C8.0719 9.47813 8.48751 9.92461 8.74375 10.5434C9.00312 11.1691 9.05937 11.8723 8.94062 12.5895C8.72188 13.957 7.87815 14.85 6.88755 15.3141C6.46257 15.5109 5.99383 15.6375 5.50009 15.7008V16.875C5.50009 17.4973 5.05323 18 4.50012 18C3.94701 18 3.50015 17.4973 3.50015 16.875V15.648C3.48765 15.648 3.47203 15.6129 3.45953 15.641H3.45328C2.69392 15.5074 1.4399 15.1383 0.593982 14.7164C0.0893082 14.4633 -0.137873 13.7988 0.0864958 13.2293C0.310864 12.6633 0.901785 12.4066 1.37833 12.6598C2.05957 12.9867 3.13454 13.3066 3.75639 13.4156C4.75636 13.5844 5.57822 13.4859 6.13445 13.2328C6.66256 12.9902 6.90318 12.6387 6.97193 12.2168C7.0313 11.8406 6.98755 11.6262 6.9313 11.4926C6.87193 11.352 6.75631 11.1938 6.52819 11.0215C6.01883 10.6453 5.24385 10.3922 4.23763 10.0863L4.15013 10.0582C3.26266 9.7875 2.17456 9.45352 1.36771 8.85234C0.926785 8.52188 0.513671 8.07539 0.257116 7.45664C-0.00318924 6.83086 -0.0597501 6.12773 0.061184 5.37891C0.282428 4.01133 1.15803 3.1391 2.18644 2.69754C2.5933 2.52281 3.03454 2.40785 3.50015 2.34598V1.125C3.50015 0.503789 3.94701 0 4.50012 0V0Z" fill="#808191"/>
</svg>
