<svg width="16" height="16" viewBox="0 0 16 16" fill="none" xmlns="http://www.w3.org/2000/svg">
<path d="M11.2205 11.8C11.0536 11.6074 10.9701 11.3887 10.9701 11.144C10.9701 10.8999 11.0536 10.6963 11.2205 10.5333L12.9047 8.88889H6.37269C6.11475 8.88889 5.89868 8.80356 5.72449 8.63289C5.5497 8.46281 5.4623 8.25185 5.4623 8C5.4623 7.74815 5.5497 7.53689 5.72449 7.36622C5.89868 7.19615 6.11475 7.11111 6.37269 7.11111H12.9047L11.2205 5.46667C11.0384 5.28889 10.9474 5.07793 10.9474 4.83378C10.9474 4.58904 11.0384 4.37778 11.2205 4.2C11.3874 4.02222 11.5962 3.93333 11.8468 3.93333C12.0969 3.93333 12.3054 4.01481 12.4723 4.17778L15.7496 7.37778C15.8407 7.46667 15.9053 7.56296 15.9436 7.66667C15.9812 7.77037 16 7.88148 16 8C16 8.11852 15.9812 8.22963 15.9436 8.33333C15.9053 8.43704 15.8407 8.53333 15.7496 8.62222L12.4723 11.8222C12.275 12.0148 12.0589 12.0999 11.8241 12.0773C11.5886 12.0554 11.3874 11.963 11.2205 11.8V11.8ZM1.82077 16C1.32006 16 0.891266 15.8261 0.534395 15.4782C0.178132 15.1298 0 14.7111 0 14.2222V1.77778C0 1.28889 0.178132 0.870222 0.534395 0.521778C0.891266 0.173926 1.32006 0 1.82077 0H7.28307C7.54101 0 7.75738 0.085037 7.93218 0.255111C8.10636 0.425778 8.19346 0.637037 8.19346 0.888889C8.19346 1.14074 8.10636 1.3517 7.93218 1.52178C7.75738 1.69244 7.54101 1.77778 7.28307 1.77778H1.82077V14.2222H7.28307C7.54101 14.2222 7.75738 14.3076 7.93218 14.4782C8.10636 14.6483 8.19346 14.8593 8.19346 15.1111C8.19346 15.363 8.10636 15.5739 7.93218 15.744C7.75738 15.9147 7.54101 16 7.28307 16H1.82077Z" fill="#808191"/>
</svg>
