<svg width="16" height="16" viewBox="0 0 16 16" fill="none" xmlns="http://www.w3.org/2000/svg">
<path d="M7.99991 5.09094C7.42455 5.09094 6.86211 5.26156 6.38371 5.58121C5.90531 5.90087 5.53245 6.35521 5.31226 6.88677C5.09208 7.41834 5.03447 8.00326 5.14672 8.56757C5.25897 9.13188 5.53603 9.65023 5.94287 10.0571C6.34972 10.4639 6.86807 10.741 7.43238 10.8532C7.99669 10.9655 8.58161 10.9079 9.11317 10.6877C9.64474 10.4675 10.0991 10.0946 10.4187 9.61624C10.7384 9.13784 10.909 8.5754 10.909 8.00003C10.909 7.22849 10.6025 6.48856 10.057 5.943C9.51139 5.39743 8.77145 5.09094 7.99991 5.09094V5.09094ZM7.99991 9.45458C7.71223 9.45458 7.43101 9.36927 7.19181 9.20944C6.95261 9.04962 6.76618 8.82245 6.65609 8.55666C6.546 8.29088 6.51719 7.99842 6.57332 7.71627C6.62944 7.43411 6.76797 7.17494 6.97139 6.97151C7.17482 6.76809 7.43399 6.62956 7.71614 6.57344C7.9983 6.51731 8.29076 6.54612 8.55654 6.65621C8.82233 6.7663 9.0495 6.95273 9.20932 7.19193C9.36915 7.43113 9.45446 7.71235 9.45446 8.00003C9.45446 8.3858 9.30121 8.75577 9.02843 9.02855C8.75565 9.30133 8.38568 9.45458 7.99991 9.45458Z" fill="#808191"/>
<path d="M15.2727 5.81818H14.5055C14.4035 5.81688 14.3042 5.78471 14.2209 5.72589C14.1375 5.66708 14.074 5.58439 14.0385 5.48873C13.9998 5.39763 13.989 5.29708 14.0076 5.19983C14.0261 5.10259 14.0731 5.01304 14.1425 4.94255L14.6851 4.4C14.8214 4.26362 14.898 4.07866 14.898 3.88582C14.898 3.69297 14.8214 3.50802 14.6851 3.37164L12.6284 1.31491C12.492 1.17857 12.307 1.10197 12.1142 1.10197C11.9213 1.10197 11.7364 1.17857 11.6 1.31491L11.0575 1.85745C10.984 1.92817 10.891 1.97519 10.7905 1.99244C10.69 2.00968 10.5867 1.99636 10.4938 1.95418C10.402 1.91729 10.3233 1.85385 10.2677 1.77197C10.2121 1.6901 10.1822 1.5935 10.1818 1.49455V0.727273C10.1818 0.534388 10.1052 0.349403 9.96881 0.213013C9.83241 0.0766231 9.64743 0 9.45455 0H6.54545C6.35257 0 6.16759 0.0766231 6.0312 0.213013C5.89481 0.349403 5.81818 0.534388 5.81818 0.727273V1.49455C5.81441 1.59392 5.78226 1.69013 5.72554 1.77181C5.66882 1.85348 5.5899 1.91722 5.49811 1.95546C5.40632 1.99371 5.30549 2.00487 5.20756 1.98763C5.10962 1.97039 5.01867 1.92547 4.94545 1.85818L4.4 1.31491C4.26362 1.17857 4.07866 1.10197 3.88582 1.10197C3.69297 1.10197 3.50802 1.17857 3.37164 1.31491L1.31491 3.37164C1.17857 3.50802 1.10197 3.69297 1.10197 3.88582C1.10197 4.07866 1.17857 4.26362 1.31491 4.4L1.85745 4.94255C1.92817 5.016 1.97519 5.109 1.99244 5.2095C2.00968 5.30999 1.99636 5.41335 1.95418 5.50618C1.91729 5.59801 1.85385 5.67674 1.77197 5.73232C1.6901 5.7879 1.5935 5.81779 1.49455 5.81818H0.727273C0.534388 5.81818 0.349403 5.89481 0.213013 6.0312C0.0766231 6.16759 0 6.35257 0 6.54545V9.45455C0 9.64743 0.0766231 9.83241 0.213013 9.96881C0.349403 10.1052 0.534388 10.1818 0.727273 10.1818H1.49455C1.59655 10.1831 1.69576 10.2153 1.77911 10.2741C1.86246 10.3329 1.92604 10.4156 1.96145 10.5113C2.00017 10.6024 2.01096 10.7029 1.99244 10.8002C1.97393 10.8974 1.92694 10.987 1.85745 11.0575L1.31491 11.6C1.17857 11.7364 1.10197 11.9213 1.10197 12.1142C1.10197 12.307 1.17857 12.492 1.31491 12.6284L3.37164 14.6851C3.50802 14.8214 3.69297 14.898 3.88582 14.898C4.07866 14.898 4.26362 14.8214 4.4 14.6851L4.94255 14.1425C5.016 14.0718 5.109 14.0248 5.2095 14.0076C5.30999 13.9903 5.41335 14.0036 5.50618 14.0458C5.59801 14.0827 5.67674 14.1462 5.73232 14.228C5.7879 14.3099 5.81779 14.4065 5.81818 14.5055V15.2727C5.81818 15.4656 5.89481 15.6506 6.0312 15.787C6.16759 15.9234 6.35257 16 6.54545 16H9.45455C9.64743 16 9.83241 15.9234 9.96881 15.787C10.1052 15.6506 10.1818 15.4656 10.1818 15.2727V14.5055C10.1831 14.4035 10.2153 14.3042 10.2741 14.2209C10.3329 14.1375 10.4156 14.074 10.5113 14.0385C10.6024 13.9998 10.7029 13.989 10.8002 14.0076C10.8974 14.0261 10.987 14.0731 11.0575 14.1425L11.6 14.6851C11.7364 14.8214 11.9213 14.898 12.1142 14.898C12.307 14.898 12.492 14.8214 12.6284 14.6851L14.6851 12.6284C14.8214 12.492 14.898 12.307 14.898 12.1142C14.898 11.9213 14.8214 11.7364 14.6851 11.6L14.1425 11.0575C14.0718 10.984 14.0248 10.891 14.0076 10.7905C13.9903 10.69 14.0036 10.5867 14.0458 10.4938C14.0827 10.402 14.1462 10.3233 14.228 10.2677C14.3099 10.2121 14.4065 10.1822 14.5055 10.1818H15.2727C15.4656 10.1818 15.6506 10.1052 15.787 9.96881C15.9234 9.83241 16 9.64743 16 9.45455V6.54545C16 6.35257 15.9234 6.16759 15.787 6.0312C15.6506 5.89481 15.4656 5.81818 15.2727 5.81818ZM14.5455 8.72727H14.5055C14.118 8.73094 13.7402 8.84849 13.419 9.06527C13.0979 9.28206 12.8476 9.58852 12.6993 9.9465C12.551 10.3045 12.5112 10.6982 12.585 11.0786C12.6588 11.4589 12.8428 11.8092 13.1142 12.0858L13.1425 12.1142L12.1142 13.1425L12.0858 13.1142C11.8094 12.8425 11.459 12.6581 11.0785 12.5842C10.698 12.5102 10.3042 12.5499 9.94607 12.6982C9.58795 12.8466 9.28142 13.097 9.06469 13.4184C8.84795 13.7398 8.73061 14.1178 8.72727 14.5055V14.5455H7.27273V14.5055C7.26906 14.118 7.15152 13.7402 6.93473 13.419C6.71794 13.0979 6.41148 12.8476 6.0535 12.6993C5.69552 12.551 5.30184 12.5112 4.92145 12.585C4.54106 12.6588 4.19077 12.8428 3.91418 13.1142L3.88582 13.1425L2.85745 12.1142L2.88582 12.0858C3.15753 11.8094 3.34186 11.459 3.41583 11.0785C3.4898 10.698 3.45014 10.3042 3.30179 9.94607C3.15344 9.58795 2.90296 9.28142 2.58159 9.06469C2.26022 8.84795 1.88216 8.73061 1.49455 8.72727H1.45455V7.27273H1.49455C1.88201 7.26906 2.25983 7.15152 2.58099 6.93473C2.90214 6.71794 3.15245 6.41148 3.30074 6.0535C3.44903 5.69552 3.48876 5.30184 3.41499 4.92145C3.34121 4.54106 3.15718 4.19077 2.88582 3.91418L2.85745 3.88582L3.88582 2.85745L3.91418 2.88582C4.19064 3.15753 4.54095 3.34186 4.92146 3.41583C5.30196 3.4898 5.69582 3.45014 6.05394 3.30179C6.41205 3.15344 6.71858 2.90296 6.93531 2.58159C7.15205 2.26022 7.26939 1.88216 7.27273 1.49455V1.45455H8.72727V1.49455C8.73094 1.88201 8.84849 2.25983 9.06527 2.58099C9.28206 2.90214 9.58852 3.15245 9.9465 3.30074C10.3045 3.44903 10.6982 3.48876 11.0786 3.41499C11.4589 3.34121 11.8092 3.15718 12.0858 2.88582L12.1142 2.85745L13.1425 3.88582L13.1142 3.91418C12.8425 4.19064 12.6581 4.54095 12.5842 4.92146C12.5102 5.30196 12.5499 5.69582 12.6982 6.05394C12.8466 6.41205 13.097 6.71858 13.4184 6.93531C13.7398 7.15205 14.1178 7.26939 14.5055 7.27273H14.5455V8.72727Z" fill="#808191"/>
</svg>
