<svg width="45" height="46" viewBox="0 0 45 46" fill="none" xmlns="http://www.w3.org/2000/svg">
<path d="M10.2376 35.106V29.631C10.2376 27.8123 11.6626 26.181 13.6876 26.181C15.5063 26.181 17.1376 27.606 17.1376 29.631V34.8998C17.1376 38.556 14.1001 41.5935 10.4438 41.5935C6.78759 41.5935 3.75009 38.5373 3.75009 34.8998V23.3498C3.54384 12.8123 11.8688 4.28101 22.4063 4.28101C32.9438 4.28101 41.2501 12.8123 41.2501 23.1435V34.6935C41.2501 38.3498 38.2126 41.3873 34.5563 41.3873C30.9001 41.3873 27.8626 38.3498 27.8626 34.6935V29.4248C27.8626 27.606 29.2876 25.9748 31.3126 25.9748C33.1313 25.9748 34.7626 27.3998 34.7626 29.4248V35.106" stroke="#EDA415" stroke-width="2.5" stroke-linecap="round" stroke-linejoin="round"/>
</svg>
