<svg width="565" height="450" viewBox="0 0 565 450" fill="none" xmlns="http://www.w3.org/2000/svg">
<g clip-path="url(#clip0_20_1355)">
<path d="M360.782 159.982C359.679 159.982 358.782 160.879 358.782 161.982V225.982C358.782 227.085 359.679 227.982 360.782 227.982C361.885 227.982 362.782 227.085 362.782 225.982V161.982C362.782 160.879 361.885 159.982 360.782 159.982Z" fill="#3F3D56"/>
<path d="M24.7817 111.982C23.6787 111.982 22.7817 112.879 22.7817 113.982V129.982C22.7817 131.085 23.6787 131.982 24.7817 131.982C25.8848 131.982 26.7817 131.085 26.7817 129.982V113.982C26.7817 112.879 25.8848 111.982 24.7817 111.982Z" fill="#3F3D56"/>
<path d="M24.7817 159.982C23.6787 159.982 22.7817 160.879 22.7817 161.982V192.982C22.7817 194.085 23.6787 194.982 24.7817 194.982C25.8848 194.982 26.7817 194.085 26.7817 192.982V161.982C26.7817 160.879 25.8848 159.982 24.7817 159.982Z" fill="#3F3D56"/>
<path d="M24.7817 203.982C23.6787 203.982 22.7817 204.879 22.7817 205.982V236.982C22.7817 238.085 23.6787 238.982 24.7817 238.982C25.8848 238.982 26.7817 238.085 26.7817 236.982V205.982C26.7817 204.879 25.8848 203.982 24.7817 203.982Z" fill="#3F3D56"/>
<path d="M204.155 48.9817C203.052 48.9817 202.155 49.8786 202.155 50.9817V81.9817C202.155 83.0847 203.052 83.9817 204.155 83.9817C205.258 83.9817 206.155 83.0847 206.155 81.9817V50.9817C206.155 49.8786 205.258 48.9817 204.155 48.9817Z" fill="#3F3D56"/>
<path d="M142.376 268.839H73.1553V266.839H142.376C148.389 266.839 153.281 261.947 153.281 255.933V209.13H155.281V255.933C155.281 263.049 149.492 268.839 142.376 268.839Z" fill="#6C63FF"/>
<path d="M274.455 370.294H117.019V372.294H274.455V370.294Z" fill="#6C63FF"/>
<path d="M187.405 256.97C190.719 256.97 193.405 254.284 193.405 250.97C193.405 247.657 190.719 244.97 187.405 244.97C184.091 244.97 181.405 247.657 181.405 250.97C181.405 254.284 184.091 256.97 187.405 256.97Z" fill="#E6E6E6"/>
<path d="M113.942 309.486C117.256 309.486 119.942 306.799 119.942 303.486C119.942 300.172 117.256 297.486 113.942 297.486C110.629 297.486 107.942 300.172 107.942 303.486C107.942 306.799 110.629 309.486 113.942 309.486Z" fill="#E6E6E6"/>
<path d="M450.138 439.616L438.396 439.615L432.81 394.325L450.14 394.326L450.138 439.616Z" fill="#FFB6B6"/>
<path d="M450.551 451.865L414.444 451.863V451.407C414.444 443.645 420.736 437.353 428.498 437.353L435.094 432.349L447.4 437.354L450.551 437.354L450.551 451.865Z" fill="#2F2E41"/>
<path d="M398.083 439.616L386.341 439.615L380.756 394.325L398.085 394.326L398.083 439.616Z" fill="#FFB6B6"/>
<path d="M398.496 451.865L362.389 451.863V451.407C362.389 443.645 368.681 437.353 376.443 437.353L383.039 432.349L395.345 437.354L398.497 437.354L398.496 451.865Z" fill="#2F2E41"/>
<path d="M392.488 186.865L460.23 188.291C460.23 188.291 472.409 208.257 463.111 236.424L464.152 244.267L459.874 256.39L457.734 293.47L459.874 299.175L458.448 309.871C458.448 309.871 464.152 380.466 449.891 416.12L432.777 415.407L426.359 322.383L429.924 315.575L429.211 312.723L420.654 269.938L412.097 292.044V304.326L404.254 313.436C404.254 313.436 407.106 397.58 399.262 414.693H380.102L372.878 300.601L380.009 234.284L378.583 230.006L380.722 227.867L379.296 220.736L392.488 186.865Z" fill="#2F2E41"/>
<path d="M421.367 56.7276L442.047 51.7361L447.751 65.2846C447.751 65.2846 477.266 80.9723 478.692 102.365C478.692 102.365 482.692 119.479 479.127 127.322C475.561 135.166 460.587 160.124 460.587 160.124C460.587 160.124 474.135 203.622 470.57 205.761C467.004 207.9 382.148 203.622 382.148 199.343C382.148 195.065 396.27 150.141 396.27 150.141L399.262 73.1284L418.515 65.9977L421.367 56.7276Z" fill="#3F3D56"/>
<path d="M476.497 232.263C472.169 230.082 470.428 224.805 472.609 220.477C472.829 220.041 473.087 219.639 473.365 219.258L461.858 140.365L477.789 140.874L486.122 217.743C489.143 220.305 490.144 224.682 488.283 228.375C486.102 232.703 480.826 234.444 476.497 232.263Z" fill="#FFB6B6"/>
<path d="M325.338 195.028C323.596 190.505 325.849 185.426 330.372 183.684C330.827 183.508 331.288 183.384 331.751 183.288L376.203 117.103L387.665 128.178L342.221 190.733C342.738 194.659 340.541 198.575 336.682 200.061C332.16 201.804 327.081 199.55 325.338 195.028Z" fill="#FFB6B6"/>
<path d="M447.468 120.466C442.967 105.002 450.443 89.2255 466.548 89.3017C471.203 89.3237 474.819 90.6745 475.822 94.4135C479.33 107.5 481.243 127.254 481.243 127.254L485.404 148.286L482.884 152.653L488.139 166.748L485.59 173.416L485.038 207.468L472.203 206.755L458.061 180.796L452.653 177.58C452.653 177.58 456.995 135.608 448.358 123.523L447.468 120.466Z" fill="#3F3D56"/>
<path d="M389.975 82.4096C397.481 68.16 416.695 64.7847 428.226 76.0281C431.559 79.2778 433.222 82.7618 431.346 86.1475C424.777 97.9975 409.553 110.756 409.553 110.756L390.804 140.898L385.957 142.288L379.945 156.076L367.061 171.224L349.997 180.223L340.013 170.24L342.133 157.407L367.824 123.177C367.824 123.177 386.308 99.9197 388.491 85.227L389.975 82.4096Z" fill="#3F3D56"/>
<path d="M425.297 52.56C425.769 52.6167 426.24 52.6593 426.708 52.6807C428.166 52.7606 429.605 52.6775 430.993 52.4423C435.209 51.7665 439.039 49.7696 441.995 46.8412C445.119 43.7512 447.258 39.6269 447.836 34.9317C449.19 23.8489 441.298 13.7532 430.215 12.399C419.292 11.0564 409.334 18.6968 407.744 29.5252C407.719 29.6928 407.694 29.8534 407.676 30.0202C406.322 41.1101 414.206 51.1994 425.297 52.56Z" fill="#FFB6B6"/>
<path d="M403.187 28.7833C406.058 30.203 410.749 25.7396 412.545 28.3076C412.837 27.7527 413.16 27.216 413.478 26.7084C413.766 26.2543 414.178 25.2848 414.655 25.1187C414.052 26.575 414.185 28.5473 414.811 30.237C417.643 31.2952 421.35 28.9529 423.971 26.1824C428.087 21.8383 434.807 32.9779 433.218 38.7429C435.241 36.2734 439.629 37.6662 441.116 40.4898C442.602 43.3063 440.091 45.563 439.554 48.7047L443.608 48.1899C446.166 45.6987 445.987 41.5008 448.093 38.6135C451.611 33.7814 452.975 28.8511 450.33 23.8642C447.984 19.4548 447.764 13.748 443.46 11.2058C445.341 10.2864 438.653 11.7228 440.44 8.72646C442.234 5.73645 432.671 5.37354 432.047 6.97542C429.314 3.70484 426.558 1.54848 423.196 4.16915C419.895 6.74747 420.236 9.45758 416.359 9.21471C414.539 9.10198 414.739 12.4943 413.658 13.9733C412.582 15.4444 408.402 16.3888 408.199 16.2314C407.095 15.3676 403.338 22.7211 403.338 22.7211C403.338 22.7211 400.293 27.3446 403.187 28.7833Z" fill="#2F2E41"/>
<path d="M150.155 157.13C218.086 157.13 273.155 212.199 273.155 280.13C273.155 348.061 218.086 403.13 150.155 403.13C82.2242 403.13 -11.7897 335.779 27.1552 280.13C66.1001 224.482 82.2242 157.13 150.155 157.13Z" fill="#F2F2F2"/>
<path d="M464.551 435.608C466.617 435.737 467.759 433.17 466.196 431.675L466.041 431.056C466.061 431.007 466.082 430.957 466.102 430.908C468.192 425.926 475.272 425.961 477.344 430.95C479.182 435.378 481.523 439.814 482.1 444.496C482.358 446.562 482.242 448.668 481.783 450.696C486.091 441.286 488.358 431.009 488.358 420.675C488.358 418.079 488.216 415.482 487.925 412.892C487.686 410.774 487.357 408.668 486.931 406.582C484.625 395.305 479.632 384.564 472.431 375.592C468.969 373.7 466.082 370.742 464.338 367.196C463.711 365.917 463.22 364.541 462.988 363.14C463.382 363.191 464.473 357.191 464.176 356.823C464.725 355.99 465.708 355.576 466.308 354.763C469.29 350.719 473.399 351.425 475.544 356.92C480.126 359.233 480.17 363.068 477.359 366.757C475.57 369.104 475.324 372.279 473.755 374.791C473.916 374.998 474.084 375.198 474.246 375.405C477.207 379.203 479.768 383.285 481.927 387.574C481.317 382.808 482.217 377.065 483.753 373.364C485.501 369.147 488.778 365.595 491.664 361.949C495.13 357.57 502.237 359.481 502.848 365.032C502.854 365.086 502.859 365.14 502.865 365.194C502.436 365.435 502.016 365.692 501.606 365.964C499.267 367.511 500.075 371.137 502.847 371.565L502.91 371.575C502.755 373.119 502.49 374.649 502.103 376.154C505.805 390.47 497.813 395.684 486.401 395.918C486.149 396.048 485.904 396.177 485.652 396.3C486.808 399.555 487.732 402.894 488.416 406.278C489.03 409.269 489.456 412.292 489.695 415.327C489.992 419.157 489.967 423.007 489.644 426.831L489.663 426.695C490.483 422.484 492.77 418.55 496.09 415.825C501.035 411.762 508.022 410.266 513.358 407C515.926 405.428 519.217 407.46 518.769 410.438L518.747 410.58C517.953 410.903 517.178 411.278 516.429 411.697C516 411.939 515.58 412.196 515.17 412.467C512.83 414.015 513.639 417.641 516.411 418.069L516.474 418.079C516.519 418.085 516.558 418.092 516.603 418.098C515.24 421.334 513.341 424.338 510.964 426.927C508.65 439.425 498.708 440.61 488.074 436.971H488.068C486.905 442.035 485.206 446.982 483.023 451.697H465.003C464.938 451.497 464.88 451.29 464.822 451.09C466.489 451.193 468.168 451.097 469.808 450.793C468.471 449.152 467.134 447.499 465.797 445.858C465.765 445.826 465.739 445.794 465.714 445.762C465.035 444.922 464.351 444.089 463.673 443.249L463.672 443.248C463.63 440.671 463.939 438.101 464.551 435.608Z" fill="#F2F2F2"/>
<path d="M328.343 258.466H244.251C239.713 258.466 236.021 254.774 236.021 250.236V167.17C236.021 162.632 239.713 158.94 244.251 158.94H328.343C332.881 158.94 336.573 162.632 336.573 167.17V250.236C336.573 254.774 332.881 258.466 328.343 258.466Z" fill="#E6E6E6"/>
<path d="M259.912 161.392C248.072 161.392 238.473 170.99 238.473 182.831V248.474C238.473 252.638 241.849 256.014 246.014 256.014H297.434C317.695 256.014 334.121 239.588 334.121 219.326V168.932C334.121 164.768 330.745 161.392 326.581 161.392L259.912 161.392Z" fill="white"/>
<path d="M308.819 185.532H263.599C262.736 185.532 262.034 184.83 262.034 183.967C262.034 183.104 262.736 182.403 263.599 182.403H308.819C309.682 182.403 310.384 183.104 310.384 183.967C310.384 184.83 309.682 185.532 308.819 185.532Z" fill="#E6E6E6"/>
<path d="M308.819 218.895H263.599C262.736 218.895 262.034 218.193 262.034 217.331C262.034 216.468 262.736 215.766 263.599 215.766H308.819C309.682 215.766 310.384 216.468 310.384 217.331C310.384 218.193 309.682 218.895 308.819 218.895Z" fill="#E6E6E6"/>
<path d="M327.182 202.224H245.236C244.373 202.224 243.671 201.522 243.671 200.66C243.671 199.797 244.373 199.095 245.236 199.095H327.182C328.045 199.095 328.747 199.797 328.747 200.66C328.747 201.522 328.045 202.224 327.182 202.224Z" fill="#E6E6E6"/>
<path d="M328.019 232.461H298.416C297.553 232.461 296.851 231.759 296.851 230.896C296.851 230.033 297.553 229.332 298.416 229.332H328.019C328.882 229.332 329.584 230.033 329.584 230.896C329.584 231.759 328.882 232.461 328.019 232.461Z" fill="#E6E6E6"/>
<path d="M151.711 423.97H84.9368C81.3332 423.97 78.4016 421.039 78.4016 417.435V351.475C78.4016 347.872 81.3332 344.94 84.9368 344.94H151.711C155.315 344.94 158.246 347.872 158.246 351.475V417.435C158.246 421.039 155.315 423.97 151.711 423.97Z" fill="#E6E6E6"/>
<path d="M97.3723 346.887C87.9705 346.887 80.3488 354.509 80.3488 363.911V416.036C80.3488 419.342 83.0294 422.023 86.3362 422.023H127.167C143.256 422.023 156.299 408.98 156.299 392.891V352.875C156.299 349.568 153.619 346.887 150.312 346.887L97.3723 346.887Z" fill="white"/>
<path d="M136.208 366.055H100.3C99.6148 366.055 99.0574 365.498 99.0574 364.813C99.0574 364.128 99.6148 363.571 100.3 363.571H136.208C136.893 363.571 137.45 364.128 137.45 364.813C137.45 365.498 136.893 366.055 136.208 366.055Z" fill="#E6E6E6"/>
<path d="M136.208 392.548H100.3C99.6148 392.548 99.0574 391.991 99.0574 391.306C99.0574 390.621 99.6148 390.064 100.3 390.064H136.208C136.893 390.064 137.45 390.621 137.45 391.306C137.45 391.991 136.893 392.548 136.208 392.548Z" fill="#E6E6E6"/>
<path d="M150.79 379.311H85.7183C85.0333 379.311 84.4758 378.753 84.4758 378.068C84.4758 377.383 85.0333 376.826 85.7183 376.826H150.79C151.475 376.826 152.032 377.383 152.032 378.068C152.032 378.753 151.475 379.311 150.79 379.311Z" fill="#E6E6E6"/>
<path d="M151.454 403.32H127.947C127.262 403.32 126.704 402.763 126.704 402.078C126.704 401.393 127.262 400.836 127.947 400.836H151.454C152.139 400.836 152.696 401.393 152.696 402.078C152.696 402.763 152.139 403.32 151.454 403.32Z" fill="#E6E6E6"/>
<path d="M105.04 211.626H55.6574C52.9924 211.626 50.8243 209.458 50.8243 206.793V158.012C50.8243 155.347 52.9924 153.179 55.6574 153.179H105.04C107.705 153.179 109.873 155.347 109.873 158.012V206.793C109.873 209.458 107.705 211.626 105.04 211.626Z" fill="#E6E6E6"/>
<path d="M64.8539 154.619C57.9009 154.619 52.2643 160.256 52.2643 167.209V205.758C52.2643 208.203 54.2468 210.186 56.6923 210.186H86.8885C98.7872 210.186 108.433 200.54 108.433 188.641V159.047C108.433 156.602 106.451 154.619 104.005 154.619L64.8539 154.619Z" fill="white"/>
<path d="M93.5748 168.795H67.0191C66.5125 168.795 66.1002 168.383 66.1002 167.876C66.1002 167.37 66.5125 166.958 67.0191 166.958H93.5748C94.0814 166.958 94.4935 167.37 94.4935 167.876C94.4935 168.383 94.0814 168.795 93.5748 168.795Z" fill="#E6E6E6"/>
<path d="M93.5748 188.388H67.0191C66.5125 188.388 66.1002 187.976 66.1002 187.469C66.1002 186.962 66.5125 186.55 67.0191 186.55H93.5748C94.0814 186.55 94.4935 186.962 94.4935 187.469C94.4935 187.976 94.0814 188.388 93.5748 188.388Z" fill="#E6E6E6"/>
<path d="M104.359 178.598H56.2354C55.7288 178.598 55.3165 178.186 55.3165 177.679C55.3165 177.172 55.7288 176.76 56.2354 176.76H104.359C104.865 176.76 105.277 177.172 105.277 177.679C105.277 178.186 104.865 178.598 104.359 178.598Z" fill="#E6E6E6"/>
<path d="M104.85 196.354H87.4653C86.9586 196.354 86.5464 195.942 86.5464 195.435C86.5464 194.929 86.9586 194.517 87.4653 194.517H104.85C105.357 194.517 105.769 194.929 105.769 195.435C105.769 195.942 105.357 196.354 104.85 196.354Z" fill="#E6E6E6"/>
<path d="M249.155 273.13C254.678 273.13 259.155 268.653 259.155 263.13C259.155 257.608 254.678 253.13 249.155 253.13C243.632 253.13 239.155 257.608 239.155 263.13C239.155 268.653 243.632 273.13 249.155 273.13Z" fill="#EDA415"/>
<path d="M108.155 222.13C113.678 222.13 118.155 217.653 118.155 212.13C118.155 206.608 113.678 202.13 108.155 202.13C102.632 202.13 98.1553 206.608 98.1553 212.13C98.1553 217.653 102.632 222.13 108.155 222.13Z" fill="#EDA415"/>
<path d="M156.155 359.13C161.678 359.13 166.155 354.653 166.155 349.13C166.155 343.608 161.678 339.13 156.155 339.13C150.632 339.13 146.155 343.608 146.155 349.13C146.155 354.653 150.632 359.13 156.155 359.13Z" fill="#EDA415"/>
<path d="M177.756 81.8528C184.64 81.8528 190.22 76.3904 190.22 69.6521C190.22 62.9139 184.64 57.4514 177.756 57.4514C170.873 57.4514 165.293 62.9139 165.293 69.6521C165.293 76.3904 170.873 81.8528 177.756 81.8528Z" fill="#F2F2F2"/>
<path d="M277.669 65.4782H210.584C208.283 65.4782 206.41 63.6057 206.41 61.3043C206.41 59.0028 208.283 57.1303 210.584 57.1303H277.669C279.971 57.1303 281.843 59.0028 281.843 61.3043C281.843 63.6057 279.971 65.4782 277.669 65.4782Z" fill="#F2F2F2"/>
<path d="M330.023 79.6053H210.584C208.283 79.6053 206.41 77.7328 206.41 75.4314C206.41 73.1299 208.283 71.2574 210.584 71.2574H330.023C332.324 71.2574 334.197 73.1299 334.197 75.4314C334.197 77.7328 332.324 79.6053 330.023 79.6053Z" fill="#F2F2F2"/>
<path d="M-2.64086 133.13C1.8139 133.13 5.42519 129.595 5.42519 125.234C5.42519 120.873 1.8139 117.338 -2.64086 117.338C-7.09561 117.338 -10.7069 120.873 -10.7069 125.234C-10.7069 129.595 -7.09561 133.13 -2.64086 133.13Z" fill="#F2F2F2"/>
<path d="M62.0213 122.533H18.6049C17.1154 122.533 15.9036 121.321 15.9036 119.832C15.9036 118.342 17.1154 117.13 18.6049 117.13H62.0213C63.5107 117.13 64.7226 118.342 64.7226 119.832C64.7226 121.321 63.5107 122.533 62.0213 122.533Z" fill="#F2F2F2"/>
<path d="M95.9036 131.676H18.6049C17.1154 131.676 15.9036 130.464 15.9036 128.974C15.9036 127.485 17.1154 126.273 18.6049 126.273H95.9036C97.393 126.273 98.6049 127.485 98.6049 128.974C98.6049 130.464 97.393 131.676 95.9036 131.676Z" fill="#F2F2F2"/>
<path d="M239.359 414.13C243.814 414.13 247.425 410.595 247.425 406.234C247.425 401.873 243.814 398.338 239.359 398.338C234.904 398.338 231.293 401.873 231.293 406.234C231.293 410.595 234.904 414.13 239.359 414.13Z" fill="#F2F2F2"/>
<path d="M304.021 403.533H260.605C259.115 403.533 257.904 402.321 257.904 400.832C257.904 399.342 259.115 398.13 260.605 398.13H304.021C305.511 398.13 306.723 399.342 306.723 400.832C306.723 402.321 305.511 403.533 304.021 403.533Z" fill="#F2F2F2"/>
<path d="M337.904 412.676H260.605C259.115 412.676 257.904 411.464 257.904 409.975C257.904 408.485 259.115 407.273 260.605 407.273H337.904C339.393 407.273 340.605 408.485 340.605 409.975C340.605 411.464 339.393 412.676 337.904 412.676Z" fill="#F2F2F2"/>
<path d="M142.405 158.97H140.405V253.97H142.405V158.97Z" fill="#E6E6E6"/>
<path d="M232.405 328.97C235.719 328.97 238.405 326.284 238.405 322.97C238.405 319.657 235.719 316.97 232.405 316.97C229.091 316.97 226.405 319.657 226.405 322.97C226.405 326.284 229.091 328.97 232.405 328.97Z" fill="#E6E6E6"/>
<path d="M70.4052 246.97C73.7189 246.97 76.4052 244.284 76.4052 240.97C76.4052 237.657 73.7189 234.97 70.4052 234.97C67.0914 234.97 64.4052 237.657 64.4052 240.97C64.4052 244.284 67.0914 246.97 70.4052 246.97Z" fill="#E6E6E6"/>
<path d="M68.1877 240.98L35.3749 241.973L35.4354 243.973L68.2483 242.98L68.1877 240.98Z" fill="#E6E6E6"/>
<path d="M281.216 345.94H231.46V322.97H233.46V343.94H281.216V345.94Z" fill="#E6E6E6"/>
<path d="M116.161 329.455H66.4052V306.486H68.4052V327.455H116.161V329.455Z" fill="#E6E6E6"/>
<path d="M268.405 283.655H29.4227V285.655H268.405V283.655Z" fill="#E6E6E6"/>
</g>
<defs>
<clipPath id="clip0_20_1355">
<rect width="564.81" height="449.941" fill="white"/>
</clipPath>
</defs>
</svg>