<svg width="350" height="512" viewBox="0 0 350 512" fill="none" xmlns="http://www.w3.org/2000/svg">
<path d="M254.977 461.776H234.037V491.486H254.977V461.776Z" fill="#F8A8AB"/>
<path d="M252.657 508.506C249.077 508.826 231.157 510.246 230.257 506.136C229.437 502.366 230.647 498.426 230.817 497.886C232.537 480.746 233.177 480.556 233.567 480.446C234.177 480.266 235.957 481.116 238.847 482.976L239.027 483.096L239.067 483.306C239.117 483.576 240.397 489.866 246.467 488.896C250.627 488.236 251.977 487.316 252.407 486.866C252.057 486.706 251.617 486.426 251.307 485.946C250.857 485.246 250.777 484.346 251.077 483.266C251.857 480.416 254.197 476.206 254.297 476.036L254.567 475.556L278.367 491.616L293.067 495.816C294.177 496.136 295.067 496.926 295.517 497.986C296.137 499.466 295.757 501.186 294.557 502.266C291.887 504.666 286.587 508.776 281.017 509.286C279.537 509.426 277.577 509.476 275.377 509.476C266.187 509.476 252.767 508.526 252.667 508.506H252.657Z" fill="#2F2E43"/>
<path d="M269.877 461.776H248.937V491.486H269.877V461.776Z" fill="#F8A8AB"/>
<path d="M267.557 508.506C263.977 508.826 246.057 510.246 245.157 506.136C244.337 502.366 245.547 498.426 245.717 497.886C247.437 480.746 248.077 480.556 248.467 480.446C249.077 480.266 250.857 481.116 253.747 482.976L253.927 483.096L253.967 483.306C254.017 483.576 255.297 489.866 261.367 488.896C265.527 488.236 266.877 487.316 267.307 486.866C266.957 486.706 266.517 486.426 266.207 485.946C265.757 485.246 265.677 484.346 265.977 483.266C266.757 480.416 269.097 476.206 269.197 476.036L269.467 475.556L293.267 491.616L307.967 495.816C309.077 496.136 309.967 496.926 310.417 497.986C311.037 499.466 310.657 501.186 309.457 502.266C306.787 504.666 301.487 508.776 295.917 509.286C294.437 509.426 292.477 509.476 290.277 509.476C281.087 509.476 267.667 508.526 267.567 508.506H267.557Z" fill="#2F2E43"/>
<path d="M72.067 463.426H51.127V493.136H72.067V463.426Z" fill="#F8A8AB"/>
<path d="M30.727 511.116C28.527 511.116 26.567 511.066 25.087 510.926C19.527 510.416 14.217 506.306 11.547 503.906C10.347 502.826 9.96699 501.106 10.587 499.626C11.037 498.566 11.927 497.766 13.037 497.456L27.737 493.256L51.537 477.196L51.807 477.676C51.907 477.856 54.247 482.066 55.027 484.906C55.327 485.986 55.247 486.886 54.797 487.586C54.487 488.066 54.047 488.346 53.697 488.506C54.127 488.956 55.477 489.876 59.637 490.536C65.707 491.496 66.987 485.206 67.037 484.946L67.077 484.736L67.257 484.616C70.147 482.756 71.927 481.906 72.537 482.086C72.917 482.196 73.557 482.396 75.287 499.526C75.457 500.066 76.667 504.006 75.847 507.776C74.957 511.876 57.037 510.466 53.447 510.146C53.347 510.156 39.927 511.116 30.737 511.116H30.727Z" fill="#2F2E43"/>
<path d="M131.693 440.064L113.925 451.145L129.647 476.355L147.415 465.274L131.693 440.064Z" fill="#F8A8AB"/>
<path d="M108.087 507.046C105.627 507.046 103.367 506.746 101.757 506.466C100.177 506.186 98.937 504.926 98.677 503.346C98.497 502.206 98.827 501.056 99.607 500.206L109.857 488.866L121.557 462.646L122.037 462.906C122.217 463.006 126.427 465.336 128.597 467.336C129.427 468.096 129.837 468.906 129.817 469.736C129.807 470.316 129.587 470.776 129.367 471.106C129.967 471.266 131.597 471.326 135.477 469.686C141.137 467.296 138.897 461.276 138.797 461.026L138.717 460.826L138.807 460.636C140.277 457.526 141.327 455.866 141.947 455.696C142.337 455.586 142.977 455.416 153.507 469.046C153.937 469.406 157.047 472.116 158.347 475.746C159.757 479.696 143.807 487.986 140.597 489.606C140.497 489.686 123.807 501.816 116.947 505.266C114.227 506.636 111.007 507.056 108.077 507.056L108.087 507.046Z" fill="#2F2E43"/>
<path d="M241.717 79.1155L267.327 87.5355V50.6655H244.087L241.717 79.1155Z" fill="#F8A8AB"/>
<path d="M264.157 60.8655C278.251 60.8655 289.677 49.4398 289.677 35.3455C289.677 21.2512 278.251 9.8255 264.157 9.8255C250.063 9.8255 238.637 21.2512 238.637 35.3455C238.637 49.4398 250.063 60.8655 264.157 60.8655Z" fill="#F8A8AB"/>
<path d="M257.657 37.3455L261.177 41.6155L267.537 30.4755C267.537 30.4755 275.657 30.8955 275.657 24.8655C275.657 18.8355 283.107 18.6655 283.107 18.6655C283.107 18.6655 293.657 0.245523 271.807 5.09552C271.807 5.09552 256.647 -5.28448 249.117 3.58552C249.117 3.58552 226.007 15.2255 232.617 35.4855L243.607 56.3755L246.097 51.6455C246.097 51.6455 244.587 31.7955 257.657 37.3255V37.3455Z" fill="#2F2E43"/>
<path d="M281.717 205.636L226.787 202.826C226.787 202.826 218.367 234.746 229.007 268.006L230.287 468.296H261.327L290.587 261.686L281.717 205.636Z" fill="#2F2E43"/>
<path d="M272.457 72.0255L242.307 56.0255C242.307 56.0255 209.817 103.506 214.307 129.226C218.807 154.946 226.787 202.826 226.787 202.826L293.297 205.636L281.687 111.346L272.457 72.0255Z" fill="white"/>
<path d="M293.297 205.636L226.787 202.826C226.787 202.826 218.367 234.746 229.007 268.006L241.867 468.296H272.907L302.167 261.686L293.297 205.636Z" fill="#2F2E43"/>
<path d="M286.357 336.456C281.707 336.456 276.637 335.316 271.627 334.196C267.917 333.366 264.647 333.156 262.027 332.996C258.047 332.746 254.897 332.546 253.147 330.216C251.417 327.916 251.417 324.006 253.147 316.296C255.447 306.056 260.567 289.696 266.827 276.236C274.917 258.876 282.687 250.886 289.937 252.516C299.647 254.696 303.517 270.906 304.967 280.366C306.987 293.576 306.807 309.276 304.527 319.436C301.507 332.886 294.577 336.446 286.347 336.446H286.357V336.456ZM288.127 255.326C282.797 255.326 276.257 263.106 269.557 277.506C263.387 290.756 258.347 306.866 256.077 316.956C254.627 323.436 254.467 326.966 255.547 328.416C256.467 329.636 258.877 329.796 262.207 329.996C264.937 330.166 268.337 330.376 272.277 331.266C287.937 334.776 297.727 336.056 301.597 318.786C305.747 300.286 302.587 258.436 289.277 255.446C288.897 255.356 288.507 255.316 288.117 255.316H288.127V255.326Z" fill="#DFDFE0"/>
<path d="M349.687 460.806L200.537 461.786L177.367 451.126L190.867 313.416L204.447 314.105L344.177 321.216L349.687 460.806Z" fill="#EDA415"/>
<path opacity="0.2" d="M200.537 461.786L177.367 451.126L190.867 313.416L204.447 314.105L200.537 461.786Z" fill="#272223"/>
<path d="M288.607 311.056C285.837 311.056 282.807 310.376 279.827 309.706C277.617 309.206 275.667 309.086 274.097 308.986C271.727 308.836 269.847 308.716 268.807 307.326C267.777 305.956 267.777 303.626 268.807 299.026C270.177 292.916 273.227 283.166 276.967 275.146C281.787 264.796 286.427 260.036 290.747 261.006C296.537 262.306 298.847 271.966 299.707 277.616C300.907 285.496 300.807 294.856 299.447 300.906C297.647 308.926 293.517 311.046 288.607 311.046V311.056ZM289.667 262.686C286.487 262.686 282.587 267.326 278.597 275.916C274.917 283.816 271.907 293.416 270.567 299.436C269.697 303.296 269.607 305.406 270.257 306.266C270.807 306.996 272.237 307.086 274.227 307.206C275.857 307.306 277.877 307.436 280.227 307.966C289.557 310.056 295.397 310.816 297.707 300.526C300.177 289.496 298.297 264.546 290.367 262.766C290.137 262.716 289.907 262.686 289.677 262.686H289.667Z" fill="#DFDFE0"/>
<path d="M326.357 385.205L237.437 385.785L223.617 379.435L231.667 297.325L239.767 297.735L323.077 301.975L326.357 385.205Z" fill="white"/>
<path opacity="0.2" d="M237.437 385.785L223.617 379.435L231.667 297.325L239.767 297.735L237.437 385.785Z" fill="white"/>
<path d="M293.807 255.636C295.297 262.956 292.567 269.646 287.727 270.576C282.887 271.506 277.757 266.316 276.277 258.996C275.647 256.076 275.747 253.056 276.567 250.176L270.677 219.066L285.897 216.656L290.087 247.576C291.977 249.936 293.247 252.696 293.807 255.636Z" fill="#F8A8AB"/>
<path d="M234.107 71.4455C234.107 71.4455 256.367 68.6255 259.027 75.2755C261.687 81.9255 292.947 240.216 292.947 240.216H272.327L234.107 71.4455Z" fill="white"/>
<path d="M79.447 105.326L57.087 112.676V80.4955H77.377L79.447 105.326Z" fill="#F8A8AB"/>
<path d="M59.857 89.4055C72.1619 89.4055 82.137 79.4304 82.137 67.1255C82.137 54.8206 72.1619 44.8455 59.857 44.8455C47.5521 44.8455 37.577 54.8206 37.577 67.1255C37.577 79.4304 47.5521 89.4055 59.857 89.4055Z" fill="#F8A8AB"/>
<path d="M65.977 64.9155C62.247 64.8055 59.797 61.0355 58.347 57.5955C56.897 54.1555 55.407 50.2055 51.947 48.7855C49.117 47.6255 44.127 55.4755 41.897 53.3855C39.567 51.2055 41.837 40.0155 44.307 38.0055C46.777 35.9955 50.157 35.6055 53.337 35.4555C61.097 35.0955 68.907 35.7255 76.517 37.3155C81.227 38.2955 86.067 39.7755 89.467 43.1755C93.767 47.4955 94.8671 54.0055 95.1771 60.0955C95.4971 66.3255 95.137 72.8455 92.107 78.2955C89.077 83.7455 82.737 87.7655 76.657 86.3755C76.047 83.0755 76.667 79.6855 76.907 76.3255C77.137 72.9755 76.897 69.3555 74.847 66.6855C72.797 64.0155 68.427 62.9555 66.047 65.3255" fill="#2F2E43"/>
<path d="M93.387 72.6355C95.617 71.0055 98.287 69.6355 101.027 69.9755C103.987 70.3355 106.497 72.7755 107.257 75.6655C108.017 78.5555 107.167 81.7355 105.327 84.0955C103.497 86.4555 100.767 88.0155 97.887 88.7955C96.217 89.2455 94.387 89.4355 92.797 88.7555C90.457 87.7455 89.187 84.7555 90.107 82.3755" fill="#2F2E43"/>
<path d="M87.487 214.975H28.857L23.537 269.515L46.817 471.035H76.747L64.777 354.645L113.327 459.725L139.927 441.105L102.017 343.005C102.017 343.005 115.557 257.545 104.917 236.255C94.277 214.965 87.487 214.975 87.487 214.975Z" fill="#2F2E43"/>
<path d="M116.647 218.296H23.537L51.467 97.9155H92.037L116.647 218.296Z" fill="#EDA415"/>
<path d="M0.407021 95.5455C-1.08298 88.2255 1.64702 81.5355 6.48702 80.6055C11.327 79.6755 16.457 84.8655 17.937 92.1855C18.567 95.1055 18.467 98.1255 17.647 101.006L23.537 132.116L8.31703 134.526L4.12702 103.606C2.23702 101.246 0.967021 98.4855 0.407021 95.5455Z" fill="#F8A8AB"/>
<path d="M91.047 97.9155H55.267L31.147 146.156L22.047 110.006L2.05701 112.126C2.05701 112.126 6.78702 182.756 27.457 180.366C48.127 177.976 96.337 114.346 91.037 97.9055H91.047V97.9155Z" fill="#EDA415"/>
<path d="M124.837 326.726C122.067 326.726 119.037 326.045 116.057 325.375C113.847 324.875 111.897 324.755 110.327 324.655C107.957 324.505 106.077 324.385 105.037 322.995C104.007 321.625 104.007 319.296 105.037 314.696C106.407 308.586 109.457 298.836 113.197 290.816C118.017 280.465 122.657 275.705 126.977 276.675C132.767 277.975 135.077 287.636 135.937 293.286C137.137 301.166 137.037 310.525 135.677 316.575C133.877 324.595 129.747 326.715 124.837 326.715V326.726ZM125.897 278.355C122.717 278.355 118.817 282.995 114.827 291.585C111.147 299.485 108.137 309.085 106.797 315.105C105.927 318.965 105.837 321.075 106.487 321.935C107.037 322.665 108.467 322.755 110.457 322.875C112.087 322.975 114.107 323.106 116.457 323.636C125.787 325.726 131.627 326.486 133.937 316.196C136.407 305.166 134.527 280.215 126.597 278.435C126.367 278.385 126.137 278.355 125.907 278.355H125.897Z" fill="#DFDFE0"/>
<path d="M162.597 400.865L73.6771 401.445L59.8571 395.095L67.907 312.985L76.007 313.395L159.317 317.635L162.597 400.865Z" fill="white"/>
<path opacity="0.2" d="M73.6771 401.445L59.8571 395.095L67.907 312.985L76.007 313.395L73.6771 401.445Z" fill="white"/>
<path d="M130.997 281.365C132.487 288.685 129.757 295.375 124.917 296.305C120.077 297.235 114.947 292.046 113.467 284.726C112.837 281.806 112.937 278.786 113.757 275.906L107.867 244.796L123.087 242.385L127.277 273.305C129.167 275.665 130.437 278.425 130.997 281.365Z" fill="#F8A8AB"/>
<path d="M70.647 97.9155C70.647 97.9155 90.977 97.0555 92.037 97.9155C97.587 102.446 130.137 265.956 130.137 265.956H109.517L70.647 97.9155Z" fill="#EDA415"/>
</svg>
